<svg xmlns="http://www.w3.org/2000/svg" xmlns:xlink="http://www.w3.org/1999/xlink" width="40" zoomAndPan="magnify" viewBox="0 0 30 30.000001" height="40" preserveAspectRatio="xMidYMid meet" version="1.0"><defs><clipPath id="e4eaf59f94"><path d="M 0.484375 0.0273438 L 29.515625 0.0273438 L 29.515625 29.03125 L 0.484375 29.03125 Z M 0.484375 0.0273438 " clip-rule="nonzero"/></clipPath></defs><g clip-path="url(#e4eaf59f94)"><path fill="#5f6fff" d="M 14.949219 0.0273438 C 22.9375 0.0273438 29.414062 6.527344 29.414062 14.542969 L 29.414062 24.703125 C 29.414062 25.859375 28.957031 26.964844 28.140625 27.785156 C 27.328125 28.601562 26.222656 29.058594 25.074219 29.058594 L 15.675781 29.058594 L 15.675781 22.691406 C 15.675781 21.238281 15.761719 19.730469 16.523438 18.496094 C 17.066406 17.609375 17.792969 16.851562 18.652344 16.269531 C 19.515625 15.691406 20.492188 15.304688 21.511719 15.136719 L 21.789062 15.09375 C 21.90625 15.054688 22.003906 14.980469 22.074219 14.878906 C 22.144531 14.78125 22.183594 14.664062 22.183594 14.542969 C 22.183594 14.421875 22.144531 14.304688 22.074219 14.207031 C 22.003906 14.105469 21.90625 14.03125 21.789062 13.992188 L 21.511719 13.949219 C 20.019531 13.703125 18.636719 12.992188 17.566406 11.917969 C 16.496094 10.84375 15.789062 9.457031 15.542969 7.957031 L 15.5 7.675781 C 15.460938 7.5625 15.386719 7.464844 15.289062 7.394531 C 15.1875 7.324219 15.070312 7.285156 14.949219 7.285156 C 14.832031 7.285156 14.710938 7.324219 14.613281 7.394531 C 14.515625 7.464844 14.441406 7.5625 14.402344 7.675781 L 14.359375 7.957031 C 14.191406 8.984375 13.804688 9.960938 13.230469 10.828125 C 12.652344 11.691406 11.894531 12.421875 11.011719 12.964844 C 9.78125 13.730469 8.28125 13.816406 6.832031 13.816406 L 0.507812 13.816406 C 0.886719 6.136719 7.207031 0.0273438 14.949219 0.0273438 Z M 14.949219 0.0273438 " fill-opacity="1" fill-rule="nonzero"/><path fill="#5f6fff" d="M 0.488281 15.269531 L 6.835938 15.269531 C 8.28125 15.269531 9.78125 15.355469 11.011719 16.121094 C 11.976562 16.714844 12.789062 17.527344 13.378906 18.496094 C 14.140625 19.730469 14.226562 21.238281 14.226562 22.691406 L 14.226562 29.058594 L 4.828125 29.058594 C 3.675781 29.058594 2.574219 28.601562 1.761719 27.785156 C 0.945312 26.964844 0.488281 25.859375 0.488281 24.703125 Z M 29.414062 1.476562 C 29.414062 1.863281 29.261719 2.234375 28.988281 2.503906 C 28.71875 2.777344 28.351562 2.929688 27.964844 2.929688 C 27.582031 2.929688 27.214844 2.777344 26.945312 2.503906 C 26.671875 2.234375 26.519531 1.863281 26.519531 1.476562 C 26.519531 1.09375 26.671875 0.722656 26.945312 0.453125 C 27.214844 0.179688 27.582031 0.0273438 27.964844 0.0273438 C 28.351562 0.0273438 28.71875 0.179688 28.988281 0.453125 C 29.261719 0.722656 29.414062 1.09375 29.414062 1.476562 Z M 29.414062 1.476562 " fill-opacity="1" fill-rule="nonzero"/></g></svg>